<svg t="1749025901158" class="icon" viewBox="0 0 1024 1024" version="1.1" xmlns="http://www.w3.org/2000/svg" p-id="3009" width="1em" height="1em" fill="currentColor"><path d="M134.56 379.488h79.136v-308.16H319.36V6.272H29.184v65.056h105.408v308.16zM505.792 385.984q81.504 0 131.84-54.336t50.336-141.504q0-83.616-48.416-136.864T511.776 0.032q-83.424 0-134.208 55.04t-50.784 142.784q0 82.88 49.728 135.52t129.312 52.576z m-69.44-282.368q26.656-34.72 73.024-34.72 45.664 0 70.752 33.856t25.088 92.16q0 55.904-25.824 89.024t-72.096 33.152q-45.408 0-71.456-34.592t-26.112-89.024q0-55.168 26.656-89.888zM829.472 249.376h40.64q62.624 1.44 104.352-33.12t41.728-91.904q0-118.048-138.176-118.048h-127.328V379.52h78.88z m0-181.376h34.912q68.832 0 68.832 59.52 0 60.96-69.568 60.96h-34.176zM156.576 637.76L0 671.008v63.84l79.36-18.08v238.784H2.144v61.92H233.28v-61.92H156.544V637.76zM416.416 638.016q-66.88 0-102.304 51.072t-35.36 147.936Q278.752 1024 409.248 1024q65.504 0 100.16-50.976t34.656-144.672q0-190.336-127.648-190.336z m-4.8 326.208q-54.752 0-54.752-129.152 0-137.376 56.16-137.376 52.352 0 52.352 133.472 0 133.056-53.792 133.056zM877.984 644.256h-127.36v373.216h78.88V887.36h40.64q62.624 1.44 104.352-33.12t41.728-91.904q-0.064-118.048-138.24-118.048z m-14.4 182.176H829.44v-120.48h34.912q68.832 0 68.832 59.52 0 60.96-69.6 60.96zM560.032 778.752h164.64v82.336h-164.64v-82.336z" p-id="3010"></path></svg>
