<svg t="1652064423719" class="icon" viewBox="0 0 1024 1024" version="1.1" xmlns="http://www.w3.org/2000/svg" p-id="2081" width="64" height="64"><path d="M512 96A416 416 0 1 1 96 512 416.48 416.48 0 0 1 512 96m0-64a480 480 0 1 0 480 480A480 480 0 0 0 512 32z" p-id="2082"></path><path d="M512 416a96 96 0 1 1-96 96 96.096 96.096 0 0 1 96-96m0-64a160 160 0 1 0 160 160 160 160 0 0 0-160-160zM285.728 706.272a32 32 0 1 1-22.624 9.376 31.776 31.776 0 0 1 22.624-9.376m0-32a64 64 0 1 0 45.248 18.752 63.776 63.776 0 0 0-45.248-18.752z m452.544-420.544a32 32 0 1 1-22.624 9.376 31.808 31.808 0 0 1 22.624-9.376m0-32a64 64 0 1 0 45.248 18.752 63.808 63.808 0 0 0-45.248-18.752z m-452.544 32a32 32 0 1 1-22.624 9.376 31.808 31.808 0 0 1 22.624-9.376m0-32a64 64 0 1 0 45.248 18.752 63.808 63.808 0 0 0-45.248-18.752z m452.544 484.544a32 32 0 1 1-22.624 9.376 31.776 31.776 0 0 1 22.624-9.376m0-32a64 64 0 1 0 45.248 18.752 63.776 63.776 0 0 0-45.248-18.752zM512 800a32 32 0 1 1-32 32 32.032 32.032 0 0 1 32-32m0-32a64 64 0 1 0 64 64 64 64 0 0 0-64-64z m0-608a32 32 0 1 1-32 32 32.032 32.032 0 0 1 32-32m0-32a64 64 0 1 0 64 64 64 64 0 0 0-64-64zM192 480a32 32 0 1 1-32 32 32.032 32.032 0 0 1 32-32m0-32a64 64 0 1 0 64 64 64 64 0 0 0-64-64z m640 32a32 32 0 1 1-32 32 32.032 32.032 0 0 1 32-32m0-32a64 64 0 1 0 64 64 64 64 0 0 0-64-64z" p-id="2083"></path><path d="M512 320a192 192 0 1 1-192 192 192.224 192.224 0 0 1 192-192m0-32a224 224 0 1 0 224 224 224 224 0 0 0-224-224z" p-id="2084"></path></svg>
