<svg t="1754178136995" class="icon" viewBox="0 0 1024 1024" version="1.1" xmlns="http://www.w3.org/2000/svg" p-id="1233" width="24" height="24"><path d="M910.222222 671.288889V341.333333c0-5.688889 0-136.533333-96.711111-233.244444C745.244444 34.133333 642.844444 0 512 0S278.755556 34.133333 210.488889 108.088889C113.777778 210.488889 113.777778 335.644444 113.777778 341.333333v329.955556H0v113.777778h176.355556V1024h113.777777v-238.933333h170.666667V1024h113.777778v-238.933333h170.666666V1024h113.777778v-238.933333H1024v-113.777778h-113.777778z m-682.666666 0V341.333333s0-85.333333 62.577777-153.6C341.333333 136.533333 415.288889 113.777778 512 113.777778c96.711111 0 170.666667 22.755556 221.866667 73.955555C796.444444 250.311111 796.444444 341.333333 796.444444 341.333333v329.955556H227.555556z" p-id="1234"></path></svg>
