<svg t="1737095613724" class="icon" viewBox="0 0 1024 1024" version="1.1" xmlns="http://www.w3.org/2000/svg" p-id="1314" width="24" height="24"><path d="M153.6 170.666667h-136.533333a17.066667 17.066667 0 0 1-17.066667-17.066667v-136.533333a17.066667 17.066667 0 0 1 17.066667-17.066667h136.533333a17.066667 17.066667 0 0 1 17.066667 17.066667v136.533333a17.066667 17.066667 0 0 1-17.066667 17.066667zM34.133333 136.533333h102.4v-102.4H34.133333v102.4zM1006.933333 170.666667h-136.533333a17.066667 17.066667 0 0 1-17.066667-17.066667v-136.533333a17.066667 17.066667 0 0 1 17.066667-17.066667h136.533333a17.066667 17.066667 0 0 1 17.066667 17.066667v136.533333a17.066667 17.066667 0 0 1-17.066667 17.066667zM887.466667 136.533333h102.4v-102.4h-102.4v102.4zM153.6 1024h-136.533333a17.066667 17.066667 0 0 1-17.066667-17.066667v-136.533333a17.066667 17.066667 0 0 1 17.066667-17.066667h136.533333a17.066667 17.066667 0 0 1 17.066667 17.066667v136.533333a17.066667 17.066667 0 0 1-17.066667 17.066667zM34.133333 989.866667h102.4v-102.4H34.133333v102.4zM1006.933333 1024h-136.533333a17.066667 17.066667 0 0 1-17.066667-17.066667v-136.533333a17.066667 17.066667 0 0 1 17.066667-17.066667h136.533333a17.066667 17.066667 0 0 1 17.066667 17.066667v136.533333a17.066667 17.066667 0 0 1-17.066667 17.066667zM887.466667 989.866667h102.4v-102.4h-102.4v102.4z" fill="" p-id="1315"></path><path d="M85.333333 887.466667a17.066667 17.066667 0 0 1-17.066666-17.066667v-716.8a17.066667 17.066667 0 0 1 34.133333 0v716.8a17.066667 17.066667 0 0 1-17.066667 17.066667zM870.4 102.4h-716.8a17.066667 17.066667 0 0 1 0-34.133333h716.8a17.066667 17.066667 0 0 1 0 34.133333zM938.666667 887.466667a17.066667 17.066667 0 0 1-17.066667-17.066667v-716.8a17.066667 17.066667 0 0 1 34.133333 0v716.8a17.066667 17.066667 0 0 1-17.066666 17.066667zM870.4 955.733333h-716.8a17.066667 17.066667 0 0 1 0-34.133333h716.8a17.066667 17.066667 0 0 1 0 34.133333z" fill="" p-id="1316"></path></svg>
