<svg width="21" height="20" xmlns="http://www.w3.org/2000/svg" data-v-6e7385e4="" fill="currentColor"><g transform="translate(.504)"><path d="M17.619 20H2.381A2.384 2.384 0 0 1 0 17.619V2.381A2.384 2.384 0 0 1 2.381 0h15.238A2.384 2.384 0 0 1 20 2.381v15.238A2.384 2.384 0 0 1 17.619 20ZM2.381.952c-.789 0-1.429.64-1.429 1.429v15.238c0 .789.64 1.429 1.429 1.429h15.238c.789 0 1.429-.64 1.429-1.429V2.381c0-.789-.64-1.429-1.429-1.429H2.381Z"></path><path d="m19.181 15.1-5.817-6.035L10 13.208 6.637 9.065.819 15.1l-.686-.661 6.565-6.81 3.3 4.067 3.305-4.066 6.564 6.809z"></path><path d="M6.665 2.884c.263 0 .476.213.476.476v16.164h-.952V3.36c0-.263.213-.476.476-.476Z"></path><circle cx="6.667" cy="8.347" r="1.429"></circle><path d="M13.331 2.884c.263 0 .477.213.477.476v16.164h-.953V3.36c0-.263.213-.476.476-.476Z"></path><circle cx="13.333" cy="8.347" r="1.429"></circle></g></svg>
