<svg t="1749111671441" class="icon" viewBox="0 0 1024 1024" version="1.1" xmlns="http://www.w3.org/2000/svg" p-id="31449" width="1em" height="1em" fill="currentColor"><path d="M299.25 54c59.8 0 107.77 31.18 144.02 86.414 28.097 42.813 48.834 98.938 65.234 168.559a1119.62 1119.62 0 0 1 1.613 6.948l0.634 2.786 0.647 2.878 0.64 2.885 0.636 2.894 0.629 2.903 0.624 2.914 0.619 2.926 0.92 4.414 0.607 2.961 0.603 2.977 0.898 4.5 0.298 1.508 0.593 3.033 0.59 3.054 0.588 3.077 0.877 4.658 0.873 4.715 0.87 4.775 0.868 4.84 0.866 4.908 0.866 4.981 0.578 3.363 0.578 3.399 0.87 5.166 0.872 5.252 0.876 5.342 0.881 5.436 1.75 10.997 6.29 40.175 0.889 5.568 1.252 7.745 3.151 19.28 1.436 8.924 0.214 1.345-0.621-6.276 2.812 13.993 1.948 9.584 1.644 7.99 1.584 7.594 1.547 7.297 1.149 5.338 1.15 5.267 0.385 1.748 0.986 4.44 0.767 3.412 0.778 3.433 0.791 3.464 0.809 3.507 0.827 3.561 0.85 3.627c9.02 38.387 18.829 74.448 29.824 108.336C634.596 830.936 688.46 907 747.075 907c44.353 0 88.203-70.16 121.086-189.735 12.479-45.378 22.495-94.236 30.236-143.129l0.536-3.41 0.524-3.377 0.51-3.342 0.499-3.307 0.485-3.272 0.705-4.838 0.676-4.752 0.436-3.12 0.423-3.08 0.41-3.04 0.4-3 0.574-4.419 0.368-2.892 0.295-2.353 0.331-2.69 0.408-3.394 0.458-3.927 0.493-4.42 0.23-2.187c1.76-17.586 17.44-30.416 35.026-28.657 17.41 1.74 30.159 17.127 28.706 34.498l-0.166 1.663-0.523 4.786-0.367 3.206-0.512 4.33-0.572 4.677-0.5 3.98-0.392 3.05-0.404 3.091-0.416 3.134-0.43 3.176-0.667 4.84-0.46 3.278-0.475 3.316-0.486 3.355-0.5 3.392-0.513 3.43-0.525 3.466-0.54 3.5-0.551 3.537-0.281 1.781c-8.086 51.069-18.562 102.17-31.74 150.09l-1.039 3.75c-0.173 0.623-0.347 1.245-0.522 1.866l-1.05 3.714-0.53 1.848-1.063 3.677a939.41 939.41 0 0 1-4.336 14.46l-1.105 3.553c-15.16 48.374-32.69 89.639-53.05 122.216-14.943 23.91-31.376 43.054-49.718 56.897C796.132 962.31 772.453 971 747.075 971c-53.988 0-100.003-30.999-138.583-85.479-29.226-41.27-54.065-95.643-75.645-160.872l-1.331-4.049c-0.221-0.677-0.442-1.355-0.662-2.035-11.591-35.725-21.852-73.448-31.251-113.444l-0.929-3.967-0.903-3.894-0.883-3.84-0.864-3.8-0.426-1.893-0.844-3.779-1.1-4.998-1.187-5.494-0.741-3.489-0.894-4.264-1.206-5.855-1.232-6.095-1.267-6.388-1.65-8.477-1.387-7.24-1.643-8.7-1.746-9.364-0.201-1.084 0.621 6.276-0.442-2.24-0.444-2.302-0.56-2.98-0.454-2.473-0.461-2.564-0.47-2.661-0.478-2.767-0.615-3.62-0.897-5.398-1.228-7.57-7.95-50.633-0.757-4.722-1.087-6.701-0.54-3.293-0.808-4.87-0.804-4.792-1.068-6.27-0.799-4.617-0.798-4.55-0.533-2.996-0.799-4.443-0.8-4.382-0.803-4.327-0.806-4.274-0.54-2.821-0.813-4.194-0.818-4.149-0.824-4.109-0.83-4.071-0.84-4.038-0.847-4.007-0.57-2.656-0.574-2.646-0.579-2.635-0.583-2.626-0.885-3.924-0.597-2.608-0.603-2.602-0.608-2.598c-0.297-1.26-0.595-2.514-0.895-3.763l-0.903-3.732c-14.516-59.446-32.342-106.634-54.648-140.622-25.3-38.552-54.497-57.53-90.513-57.53-54.87 0-103.775 69.863-139.95 190.445-13.565 45.219-24.281 93.928-32.406 142.675l-0.562 3.4-0.549 3.368-0.534 3.332-0.52 3.297-0.507 3.262-0.493 3.225-0.479 3.187-0.465 3.15-0.452 3.11-0.438 3.07-0.425 3.031-0.411 2.99-0.398 2.947-0.572 4.34-0.53 4.144-0.527 4.258-0.465 3.91-0.355 3.11-0.37 3.433c-1.76 17.586-17.44 30.416-35.026 28.657-17.41-1.74-30.159-17.127-28.706-34.498l0.065-0.687 0.423-3.927 0.304-2.675 0.385-3.278 0.538-4.418 0.476-3.785 0.518-3.994 0.405-3.058 0.418-3.1 0.433-3.145 0.446-3.185 0.46-3.227 0.475-3.266 0.488-3.307 0.503-3.345c0.085-0.56 0.17-1.123 0.257-1.687l0.524-3.402 0.538-3.44 0.275-1.733 0.56-3.493 0.575-3.53 0.59-3.562C72.3 389.384 83.575 338.133 98 290.055c18.889-62.964 41.813-115.866 69.742-155.765C203.506 83.199 247.304 54 299.25 54z m63.975 426.5c17.673 0 32 14.327 32 32 0 17.496-14.042 31.713-31.47 31.996l-0.53 0.004h-127.95c-17.673 0-32-14.327-32-32 0-17.496 14.042-31.713 31.47-31.996l0.53-0.004h127.95z m426.5 0c17.673 0 32 14.327 32 32 0 17.496-14.042 31.713-31.47 31.996l-0.53 0.004h-127.95c-17.673 0-32-14.327-32-32 0-17.496 14.042-31.713 31.47-31.996l0.53-0.004h127.95z" p-id="31450"></path></svg>
