<svg width="21" height="21" xmlns="http://www.w3.org/2000/svg" data-v-6e7385e4="" fill="currentColor"><path d="M18.518 20.237H3.248A2.387 2.387 0 0 1 .86 17.851V2.581A2.387 2.387 0 0 1 3.247.193h15.271a2.387 2.387 0 0 1 2.386 2.386v15.271a2.387 2.387 0 0 1-2.386 2.386ZM3.248 1.15c-.788 0-1.432.644-1.432 1.431v15.271c0 .788.644 1.432 1.431 1.432h15.271c.787 0 1.432-.644 1.432-1.432V2.581c0-.788-.645-1.432-1.432-1.432H3.248Z"></path><path d="M19.11 9.185h-5.942a.831.831 0 0 1-.73-.41.76.76 0 0 1-.01-.773l2.926-5.288a.852.852 0 0 1 .74-.43c.31 0 .596.158.744.42l3.016 5.288a.77.77 0 0 1-.005.778.867.867 0 0 1-.74.415ZM16.094 2.93c-.029 0-.129.01-.177.095l-2.925 5.288a.134.134 0 0 0 0 .133c.033.058.1.091.172.091h5.941c.076 0 .143-.033.177-.09a.134.134 0 0 0 0-.134l-3.016-5.288c-.048-.086-.144-.095-.172-.095Z"></path><path d="M16.137 7.066a.363.363 0 0 1-.363-.362V4.9a.363.363 0 1 1 .725 0v1.804a.357.357 0 0 1-.362.362Zm.367.659a.363.363 0 1 1-.725 0 .363.363 0 0 1 .725 0Z"></path><path d="M13.269 16.601a.427.427 0 0 1-.392-.262L8.94 6.489a.477.477 0 0 0-.888 0l-1.555 3.89a.415.415 0 0 1-.387.262H2.23a.42.42 0 0 1-.42-.416c0-.229.187-.415.42-.415H5.5c.195 0 .372-.12.443-.3l2.162-5.402a.408.408 0 0 1 .387-.263c.172 0 .324.105.391.263l3.937 9.85a.477.477 0 0 0 .888 0l1.555-3.89a.415.415 0 0 1 .387-.263h3.88a.415.415 0 0 1 0 .83h-3.274a.477.477 0 0 0-.444.301L13.65 16.34a.404.404 0 0 1-.381.262Z"></path></svg>
