<svg width="21" height="21" xmlns="http://www.w3.org/2000/svg" data-v-6e7385e4="" fill="currentColor"><path d="M18.308 20.237H3.04a2.387 2.387 0 0 1-2.386-2.385V2.582A2.387 2.387 0 0 1 3.04.198h15.27a2.387 2.387 0 0 1 2.385 2.386v15.269a2.387 2.387 0 0 1-2.386 2.385ZM3.04 1.151c-.787 0-1.431.644-1.431 1.432v15.269c0 .787.644 1.431 1.431 1.431h15.27c.786 0 1.43-.644 1.43-1.431V2.582c0-.787-.644-1.43-1.43-1.43H3.038Z"></path><path d="M5.425 19.76h-.954V3.566c0-.263.214-.478.477-.478.262 0 .477.215.477.478V19.76ZM16.877 19.76h-.955V13.11a.479.479 0 0 1 .954 0v6.651ZM11.15 19.76h-.953V8.337c0-.262.214-.477.477-.477.262 0 .477.215.477.477V19.76Z"></path></svg>
