<svg width="21" height="21" xmlns="http://www.w3.org/2000/svg" data-v-6e7385e4="" fill="currentColor"><path d="M18.264 20.237H2.994A2.387 2.387 0 0 1 .61 17.852V2.582A2.387 2.387 0 0 1 2.995.198h15.269a2.387 2.387 0 0 1 2.386 2.386v15.269a2.39 2.39 0 0 1-2.386 2.385ZM2.994 1.151c-.787 0-1.43.644-1.43 1.432v15.269c0 .787.643 1.431 1.43 1.431h15.27c.787 0 1.431-.644 1.431-1.431V2.582c0-.787-.644-1.43-1.431-1.43H2.994Z"></path><path d="M20.172 15.475a.474.474 0 0 1-.41-.233L16.25 9.325 10.96 14.43a.481.481 0 0 1-.664 0L5.004 9.325l-3.512 5.917a.476.476 0 1 1-.821-.487l3.817-6.437a.48.48 0 0 1 .745-.1l5.396 5.2 5.397-5.2a.48.48 0 0 1 .744.1l3.817 6.437a.48.48 0 0 1-.167.654.538.538 0 0 1-.248.066Z"></path><g transform="translate(3.472 3.088)"><path d="M1.904 16.672H.95V.477C.95.215 1.164 0 1.427 0c.262 0 .477.215.477.477v16.195Z"></path><circle cx="1.431" cy="5.473" r="1.431"></circle></g><g transform="translate(14.924 3.088)"><path d="M1.904 16.672H.95V.477C.95.215 1.164 0 1.427 0c.262 0 .477.215.477.477v16.195Z"></path><circle cx="1.431" cy="5.473" r="1.431"></circle></g><g transform="translate(9.198 3.088)"><path d="M1.904 16.672H.95V.477C.95.215 1.164 0 1.427 0c.262 0 .477.215.477.477v16.195Z"></path><circle cx="1.431" cy="10.994" r="1.431"></circle></g></svg>
