<svg width="21" height="20" xmlns="http://www.w3.org/2000/svg" data-v-6e7385e4="" fill="currentColor"><g transform="translate(.503)"><path d="M17.62 20H2.38a2.384 2.384 0 0 1-2.38-2.381V2.381A2.384 2.384 0 0 1 2.38 0H17.62A2.384 2.384 0 0 1 20 2.381v15.238A2.384 2.384 0 0 1 17.62 20ZM2.38.952c-.789 0-1.428.64-1.428 1.429v15.238c0 .789.64 1.429 1.428 1.429H17.62c.79 0 1.429-.64 1.429-1.429V2.381c0-.789-.64-1.429-1.429-1.429H2.381Z"></path><path d="M10 2.884c.263 0 .476.213.476.476v16.164h-.952V3.36c0-.263.213-.476.476-.476Z"></path><path d="M19.524 15.246a.476.476 0 0 1-.275-.087L10 8.609l-9.248 6.55a.476.476 0 1 1-.55-.778l9.523-6.744a.476.476 0 0 1 .55 0L19.8 14.38a.476.476 0 0 1-.275.865Z"></path><circle cx="10.002" cy="8.347" r="1.429"></circle></g></svg>
