<svg t="1749025850722" class="icon" viewBox="0 0 1024 1024" version="1.1" xmlns="http://www.w3.org/2000/svg" p-id="2814" width="1em" height="1em" fill="currentColor"><path d="M128 128v384h10.56l73.6-116.608a163.136 163.136 0 0 1 259.584-20.48l7.552 9.28L576 512h448v64h-8.448l-101.632 140.864c-9.728 13.44-21.504 25.408-34.88 35.264a163.328 163.328 0 0 1-219.456-23.424l-7.232-8.96L543.552 576H128v384H64V128h64z m807.936 448H624.384l79.872 105.472a97.92 97.92 0 0 0 150.72 6.016l6.208-7.744L935.936 576zM272.448 421.632l-5.312 7.616L214.912 512h280.192L427.456 422.528a97.92 97.92 0 0 0-154.944-0.896z" p-id="2815"></path></svg>
