<svg width="21" height="21" xmlns="http://www.w3.org/2000/svg" data-v-6e7385e4="" fill="currentColor"><path d="M18.39 20.237H3.12a2.387 2.387 0 0 1-2.386-2.385V2.582A2.387 2.387 0 0 1 3.12.198h15.27a2.387 2.387 0 0 1 2.385 2.386v15.269a2.393 2.393 0 0 1-2.386 2.385ZM3.12 1.151c-.787 0-1.431.644-1.431 1.432v15.269c0 .787.644 1.431 1.431 1.431h15.27c.786 0 1.43-.644 1.43-1.431V2.582c0-.787-.644-1.43-1.43-1.43H3.12Z"></path><path d="M5.32 4.424H3.85v-.849h3.975v.85h-1.47v4.08H5.32zM12.787 6.023c0 1.379-.792 2.558-2.38 2.558-1.537 0-2.315-1.131-2.315-2.544 0-1.393.845-2.529 2.381-2.529 1.446-.004 2.314 1.04 2.314 2.515Zm-3.63-.005c0 .974.424 1.723 1.288 1.723.94 0 1.278-.788 1.278-1.708 0-.936-.372-1.69-1.293-1.69-.887 0-1.274.711-1.274 1.675ZM13.713 3.575h1.985c1.021 0 1.746.563 1.746 1.513 0 1.054-.792 1.555-1.784 1.555h-.916v1.861h-1.031V3.575Zm1.03 2.243h.802c.51 0 .86-.2.86-.716 0-.51-.368-.71-.836-.71h-.825v1.426ZM4.805 17.093v-3.57c-.206.092-.602.163-.816.182v-.74c.424-.071.859-.31 1.12-.596h.698v4.724H4.805ZM10.292 14.688c0 1.303-.396 2.49-1.775 2.49-1.37 0-1.78-1.15-1.78-2.456 0-1.289.477-2.43 1.799-2.43 1.293 0 1.756 1.06 1.756 2.396Zm-2.534.02c0 .92.115 1.684.768 1.684.65 0 .745-.73.745-1.694 0-.94-.124-1.618-.73-1.618-.602 0-.783.592-.783 1.627ZM12.883 14.822v.859h-1.961v-.86zM13.766 12.164h1.985c1.02 0 1.746.563 1.746 1.513 0 1.054-.792 1.555-1.785 1.555h-.916v1.861h-1.03v-4.929Zm1.03 2.243h.802c.51 0 .859-.2.859-.716 0-.51-.368-.711-.835-.711h-.826v1.427Z"></path></svg>
