<svg t="1753416327854" class="icon" viewBox="0 0 1024 1024" version="1.1" xmlns="http://www.w3.org/2000/svg" p-id="8640" width="200" height="200"><path d="M810.666667 810.666667H128a128 128 0 0 1-128-128V341.333333a128 128 0 0 1 128-128h682.666667a128 128 0 0 1 128 128v7.253334A128 128 0 0 1 1024 469.333333v85.333334a128 128 0 0 1-85.333333 120.746666V682.666667a128 128 0 0 1-128 128zM128 298.666667a42.666667 42.666667 0 0 0-42.666667 42.666666v341.333334a42.666667 42.666667 0 0 0 42.666667 42.666666h682.666667a42.666667 42.666667 0 0 0 42.666666-42.666666v-42.666667a42.666667 42.666667 0 0 1 42.666667-42.666667 42.666667 42.666667 0 0 0 42.666667-42.666666v-85.333334a42.666667 42.666667 0 0 0-42.666667-42.666666 42.666667 42.666667 0 0 1-42.666667-42.666667V341.333333a42.666667 42.666667 0 0 0-42.666666-42.666666z" p-id="8641"></path><path d="M213.333333 682.666667a42.666667 42.666667 0 0 1-42.666666-42.666667V384a42.666667 42.666667 0 0 1 85.333333 0v256a42.666667 42.666667 0 0 1-42.666667 42.666667zM384 682.666667a42.666667 42.666667 0 0 1-42.666667-42.666667V384a42.666667 42.666667 0 0 1 85.333334 0v256a42.666667 42.666667 0 0 1-42.666667 42.666667zM554.666667 682.666667a42.666667 42.666667 0 0 1-42.666667-42.666667V384a42.666667 42.666667 0 0 1 85.333333 0v256a42.666667 42.666667 0 0 1-42.666666 42.666667zM725.333333 682.666667a42.666667 42.666667 0 0 1-42.666666-42.666667V384a42.666667 42.666667 0 0 1 85.333333 0v256a42.666667 42.666667 0 0 1-42.666667 42.666667z" p-id="8642"></path></svg>
