<svg t="1681452912340" class="icon" viewBox="0 0 1024 1024" version="1.1" xmlns="http://www.w3.org/2000/svg" p-id="3625" width="28" height="28"><path d="M637.46 928.46c-2.33 0.17-4.66-0.21-6.8-1.11l-273.67-72.71-260.04 60.62c-7.88 1.89-16.21 0.26-22.72-4.43-6.56-4.55-10.38-11.94-10.22-19.76V439.26c-0.06-8.38 4.21-16.24 11.36-20.94l106.74-73.81c12.22-8.22 29-5.26 37.47 6.6 8.47 11.86 5.42 28.14-6.8 36.35l-95.38 66.11v405.46l233.93-55.08c4.48-1.1 9.17-1.1 13.64 0l272.53 71.6 269.11-71.6V390.78l-60.19 17.62c-13.92 3.87-28.45-3.94-32.44-17.45-3.83-12.97 3.43-26.59 16.56-31.04l94.24-28.65c8.08-2.26 16.77-1.06 23.86 3.32 7.16 4.7 11.42 12.56 11.36 20.94v467.19c0.08 11.42-7.89 21.42-19.3 24.22l-295.26 79.35a29.415 29.415 0 0 1-8.14 2.21l0.16-0.03z" p-id="3626"></path><path d="M511.43 395.16c-51.11 0-92.54-41.43-92.54-92.54 0-51.11 41.43-92.54 92.54-92.54 51.11 0 92.54 41.43 92.54 92.54-0.3 50.98-41.56 92.24-92.54 92.54z m0-152.05c-32.87 0-59.51 26.64-59.51 59.51s26.64 59.51 59.51 59.51 59.51-26.64 59.51-59.51c0.11-32.73-26.34-59.36-59.07-59.47h-0.44v-0.04z" p-id="3627"></path><path d="M502.58 657.42c-13.24 0-30.86 0-104.68-156.44-27.66-57.3-73.81-162.01-73.81-219.27 0-102.84 83.37-186.21 186.21-186.21s186.21 83.37 186.21 186.21c0 53.98-45.17 149.84-82.63 220.38-80.41 155.37-99.14 155.37-111.27 155.37l-0.03-0.04z m8.81-510.14c-74.79-0.07-135.47 60.51-135.54 135.3v0.24c0 65 89.26 246.81 127.79 309.6 41.89-62.79 142.25-245.71 142.25-309.6 0.21-74.53-59.97-135.17-134.5-135.54z" p-id="3628"></path></svg>
